REM DIRINDEX 1\6,1\2\7,1\2\8,1\2\9,1\3\10,1\3\11,1\4\12,1\4\13,1\4\14,1\5\15,1\5\16,1\5\17
REM DIRNAME folder01,folder02,folder03,folder04,folder05,folder06,folder07,folder08,folder09,folder10,folder11,folder12,folder13,folder14,folder15,folder16,folder17
TITLE ""
FILE "3Q_j_0965-0980.mp3" MP3
  TRACK 01 AUDIO
    TITLE "12:cjc041_0194"
    INDEX 01 00:00:00
  TRACK 02 AUDIO
    TITLE "0:"
    INDEX 01 00:02:04
  TRACK 03 AUDIO
    TITLE "13:cjc041_0195"
    INDEX 01 00:02:51
  TRACK 04 AUDIO
    TITLE "0:"
    INDEX 01 00:04:03
  TRACK 05 AUDIO
    TITLE "14:cjc041_0196"
    INDEX 01 00:04:54
  TRACK 06 AUDIO
    TITLE "0:"
    INDEX 01 00:07:72
  TRACK 07 AUDIO
    TITLE "12:cjc041_0197"
    INDEX 01 00:08:50
  TRACK 08 AUDIO
    TITLE "0:"
    INDEX 01 00:10:21
  TRACK 09 AUDIO
    TITLE "13:cjc041_0198"
    INDEX 01 00:11:01
  TRACK 10 AUDIO
    TITLE "0:"
    INDEX 01 00:12:05
  TRACK 11 AUDIO
    TITLE "14:cjc041_0199"
    INDEX 01 00:12:52
  TRACK 12 AUDIO
    TITLE "0:"
    INDEX 01 00:17:29
  TRACK 13 AUDIO
    TITLE "12:cjc041_0200"
    INDEX 01 00:18:11
  TRACK 14 AUDIO
    TITLE "0:"
    INDEX 01 00:20:12
  TRACK 15 AUDIO
    TITLE "13:cjc041_0201"
    INDEX 01 00:20:65
  TRACK 16 AUDIO
    TITLE "0:"
    INDEX 01 00:21:74
  TRACK 17 AUDIO
    TITLE "14:cjc041_0202"
    INDEX 01 00:22:52
  TRACK 18 AUDIO
    TITLE "0:"
    INDEX 01 00:27:63
  TRACK 19 AUDIO
    TITLE "12:cjc041_0203"
    INDEX 01 00:28:43
  TRACK 20 AUDIO
    TITLE "0:"
    INDEX 01 00:30:55
  TRACK 21 AUDIO
    TITLE "13:cjc041_0204"
    INDEX 01 00:31:33
  TRACK 22 AUDIO
    TITLE "0:"
    INDEX 01 00:33:09
  TRACK 23 AUDIO
    TITLE "14:cjc041_0205"
    INDEX 01 00:33:58
  TRACK 24 AUDIO
    TITLE "0:"
    INDEX 01 00:37:57
  TRACK 25 AUDIO
    TITLE "12:cjc041_0206"
    INDEX 01 00:38:31
  TRACK 26 AUDIO
    TITLE "0:"
    INDEX 01 00:40:24
  TRACK 27 AUDIO
    TITLE "13:cjc041_0207"
    INDEX 01 00:41:04
  TRACK 28 AUDIO
    TITLE "0:"
    INDEX 01 00:42:59
  TRACK 29 AUDIO
    TITLE "14:cjc041_0208"
    INDEX 01 00:43:42
  TRACK 30 AUDIO
    TITLE "0:"
    INDEX 01 00:47:48
  TRACK 31 AUDIO
    TITLE "12:cjc041_0209"
    INDEX 01 00:48:28
  TRACK 32 AUDIO
    TITLE "0:"
    INDEX 01 00:50:35
  TRACK 33 AUDIO
    TITLE "13:cjc041_0210"
    INDEX 01 00:51:09
  TRACK 34 AUDIO
    TITLE "0:"
    INDEX 01 00:52:45
  TRACK 35 AUDIO
    TITLE "14:cjc041_0211"
    INDEX 01 00:53:19
  TRACK 36 AUDIO
    TITLE "0:"
    INDEX 01 00:56:33
  TRACK 37 AUDIO
    TITLE "12:cjc041_0212"
    INDEX 01 00:57:13
  TRACK 38 AUDIO
    TITLE "0:"
    INDEX 01 00:58:54
  TRACK 39 AUDIO
    TITLE "13:cjc041_0213"
    INDEX 01 00:59:34
  TRACK 40 AUDIO
    TITLE "0:"
    INDEX 01 01:00:55
  TRACK 41 AUDIO
    TITLE "14:cjc041_0214"
    INDEX 01 01:01:34
  TRACK 42 AUDIO
    TITLE "0:"
    INDEX 01 01:04:47
  TRACK 43 AUDIO
    TITLE "12:cjc041_0215"
    INDEX 01 01:05:28
  TRACK 44 AUDIO
    TITLE "0:"
    INDEX 01 01:06:63
  TRACK 45 AUDIO
    TITLE "13:cjc041_0216"
    INDEX 01 01:07:39
  TRACK 46 AUDIO
    TITLE "0:"
    INDEX 01 01:08:54
  TRACK 47 AUDIO
    TITLE "14:cjc041_0217"
    INDEX 01 01:09:36
  TRACK 48 AUDIO
    TITLE "0:"
    INDEX 01 01:12:13
  TRACK 49 AUDIO
    TITLE "12:cjc041_0218"
    INDEX 01 01:12:66
  TRACK 50 AUDIO
    TITLE "0:"
    INDEX 01 01:14:21
  TRACK 51 AUDIO
    TITLE "13:cjc041_0219"
    INDEX 01 01:15:01
  TRACK 52 AUDIO
    TITLE "0:"
    INDEX 01 01:16:16
  TRACK 53 AUDIO
    TITLE "14:cjc041_0220"
    INDEX 01 01:16:73
  TRACK 54 AUDIO
    TITLE "0:"
    INDEX 01 01:20:63
  TRACK 55 AUDIO
    TITLE "12:cjc041_0221"
    INDEX 01 01:21:43
  TRACK 56 AUDIO
    TITLE "0:"
    INDEX 01 01:23:03
  TRACK 57 AUDIO
    TITLE "13:cjc041_0222"
    INDEX 01 01:23:52
  TRACK 58 AUDIO
    TITLE "0:"
    INDEX 01 01:25:11
  TRACK 59 AUDIO
    TITLE "14:cjc041_0223"
    INDEX 01 01:25:64
  TRACK 60 AUDIO
    TITLE "0:"
    INDEX 01 01:30:22
  TRACK 61 AUDIO
    TITLE "12:cjc041_0224"
    INDEX 01 01:30:73
  TRACK 62 AUDIO
    TITLE "0:"
    INDEX 01 01:32:23
  TRACK 63 AUDIO
    TITLE "13:cjc041_0225"
    INDEX 01 01:33:01
  TRACK 64 AUDIO
    TITLE "0:"
    INDEX 01 01:35:06
  TRACK 65 AUDIO
    TITLE "14:cjc041_0226"
    INDEX 01 01:35:57
  TRACK 66 AUDIO
    TITLE "0:"
    INDEX 01 01:39:39
  TRACK 67 AUDIO
    TITLE "12:cjc041_0227"
    INDEX 01 01:40:17
  TRACK 68 AUDIO
    TITLE "0:"
    INDEX 01 01:41:38
  TRACK 69 AUDIO
    TITLE "13:cjc041_0228"
    INDEX 01 01:42:18
  TRACK 70 AUDIO
    TITLE "0:"
    INDEX 01 01:44:15
  TRACK 71 AUDIO
    TITLE "14:cjc041_0229"
    INDEX 01 01:44:72
  TRACK 72 AUDIO
    TITLE "0:"
    INDEX 01 01:48:34
  TRACK 73 AUDIO
    TITLE "12:cjc041_0230"
    INDEX 01 01:49:10
  TRACK 74 AUDIO
    TITLE "0:"
    INDEX 01 01:50:35
  TRACK 75 AUDIO
    TITLE "13:cjc041_0231"
    INDEX 01 01:51:15
  TRACK 76 AUDIO
    TITLE "0:"
    INDEX 01 01:52:65
  TRACK 77 AUDIO
    TITLE "14:cjc041_0232"
    INDEX 01 01:53:47
  TRACK 78 AUDIO
    TITLE "0:"
    INDEX 01 01:56:34
  TRACK 79 AUDIO
    TITLE "12:cjc041_0233"
    INDEX 01 01:57:13
  TRACK 80 AUDIO
    TITLE "0:"
    INDEX 01 01:59:22
  TRACK 81 AUDIO
    TITLE "13:cjc041_0234"
    INDEX 01 02:00:06
  TRACK 82 AUDIO
    TITLE "0:"
    INDEX 01 02:02:09
  TRACK 83 AUDIO
    TITLE "14:cjc041_0235"
    INDEX 01 02:02:66
  TRACK 84 AUDIO
    TITLE "0:"
    INDEX 01 02:07:20
  TRACK 85 AUDIO
    TITLE "12:cjc041_0236"
    INDEX 01 02:08:03
  TRACK 86 AUDIO
    TITLE "0:"
    INDEX 01 02:09:66
  TRACK 87 AUDIO
    TITLE "13:cjc041_0237"
    INDEX 01 02:10:43
  TRACK 88 AUDIO
    TITLE "0:"
    INDEX 01 02:12:19
  TRACK 89 AUDIO
    TITLE "14:cjc041_0238"
    INDEX 01 02:12:74
  TRACK 90 AUDIO
    TITLE "0:"
    INDEX 01 02:18:23
  TRACK 91 AUDIO
    TITLE "12:cjc041_0239"
    INDEX 01 02:19:05
  TRACK 92 AUDIO
    TITLE "0:"
    INDEX 01 02:20:63
  TRACK 93 AUDIO
    TITLE "13:cjc041_0240"
    INDEX 01 02:21:41
  TRACK 94 AUDIO
    TITLE "0:"
    INDEX 01 02:22:62
  TRACK 95 AUDIO
    TITLE "14:cjc041_0241"
    INDEX 01 02:23:46
  TRACK 96 AUDIO
    TITLE "0:"
    INDEX 01 02:27:65
